<svg width="28" height="45" viewBox="0 0 28 45" fill="none" xmlns="http://www.w3.org/2000/svg">
<g clip-path="url(#clip0_3_19)">
<path d="M23.8 0H4.2C1.88125 0 0 1.88125 0 4.2V40.6C0 42.9188 1.88125 44.8 4.2 44.8H23.8C26.1187 44.8 28 42.9188 28 40.6V4.2C28 1.88125 26.1187 0 23.8 0ZM14 42C12.4513 42 11.2 40.7487 11.2 39.2C11.2 37.6512 12.4513 36.4 14 36.4C15.5487 36.4 16.8 37.6512 16.8 39.2C16.8 40.7487 15.5487 42 14 42ZM23.8 32.55C23.8 33.1275 23.3275 33.6 22.75 33.6H5.25C4.6725 33.6 4.2 33.1275 4.2 32.55V5.25C4.2 4.6725 4.6725 4.2 5.25 4.2H22.75C23.3275 4.2 23.8 4.6725 23.8 5.25V32.55Z" fill="white"/>
</g>
<defs>
<clipPath id="clip0_3_19">
<rect width="28" height="44.8" fill="white"/>
</clipPath>
</defs>
</svg>
