<svg width="35" height="39" viewBox="0 0 35 39" fill="none" xmlns="http://www.w3.org/2000/svg">
<path d="M28.4375 9.54546V2.38636C28.4375 1.06864 27.4579 0 26.25 0H2.1875C0.979589 0 0 1.06864 0 2.38636V9.54546C0 10.8632 0.979589 11.9318 2.1875 11.9318H26.25C27.4579 11.9318 28.4375 10.8632 28.4375 9.54546ZM30.625 4.77273V14.3182C30.625 15.6359 29.6454 16.7045 28.4375 16.7045H17.5C15.0835 16.7045 13.125 18.8411 13.125 21.4773V23.8636C11.9171 23.8636 10.9375 24.9323 10.9375 26.25V35.7955C10.9375 37.1132 11.9171 38.1818 13.125 38.1818H17.5C18.7079 38.1818 19.6875 37.1132 19.6875 35.7955V26.25C19.6875 24.9323 18.7079 23.8636 17.5 23.8636V21.4773H28.4375C32.0619 21.4773 35 18.2721 35 14.3182V9.54546C35 6.90927 33.0415 4.77273 30.625 4.77273Z" fill="white"/>
</svg>
