<svg width="50" height="50" viewBox="0 0 50 50" fill="none" xmlns="http://www.w3.org/2000/svg">
<path d="M11.4849 44.3342C4.53775 53.681 12.6217 48.5022 12.6217 48.5022C12.6217 48.5022 14.4769 51.7863 16.8334 48.6286C16.8334 48.6286 19.1898 51.7863 20.9581 48.3761C20.9581 48.3761 22.8528 51.6603 25.0001 48.5026C27.1473 51.6603 29.042 48.3761 29.042 48.3761C30.8103 51.7866 33.1668 48.6286 33.1668 48.6286C35.5232 51.7863 37.3785 48.5022 37.3785 48.5022C37.3785 48.5022 45.4624 53.681 38.5153 44.3342C36.5603 41.7037 34.14 34.6576 33.8493 30.2806C33.107 19.1035 37.8838 8.46259 37.8838 8.46259C33.1667 6.69428 33.8418 0 33.8418 0H31.0632C31.0632 7.07323 25.0004 7.07323 25.0004 7.07323C25.0004 7.07323 18.9376 7.07323 18.9376 0H16.1584C16.1584 0 16.8335 6.69428 12.1164 8.46259C12.1164 8.46259 16.8932 19.1035 16.1509 30.2806C15.8601 34.6576 13.4395 41.7038 11.4849 44.3342Z" fill="white"/>
</svg>
